<?xml version="1.0" standalone="no"?>
<!DOCTYPE svg PUBLIC "-//W3C//DTD SVG 1.1//EN" "http://www.w3.org/Graphics/SVG/1.1/DTD/svg11.dtd" >
<svg xmlns="http://www.w3.org/2000/svg">
  <metadata>Created by iconfont</metadata>
  <defs>
  <font id="iconfont" horiz-adv-x="1024">
    <font-face
      font-family="iconfont"
      font-weight="400"
      font-stretch="normal"
      units-per-em="1024"
      ascent="896"
      descent="-128"
    />
      <missing-glyph />
      
      <glyph glyph-name="play-next" unicode="&#59301;" d="M832 735.8720000000001c0 17.664-14.336 32-32 32S768 753.5360000000001 768 735.8720000000001l0-282.88L214.592 761.408c-18.176 10.112-39.936 10.048-58.112 0C138.24 751.232 127.424 733.12 127.424 712.832l0-656.64c0-20.224 10.816-38.464 29.056-48.576C165.568 2.5599999999999454 175.488 0 185.472 0s19.968 2.56 29.056 7.616L768 316.03200000000004l0-284.096c0-17.664 14.336-32 32-32s32 14.336 32 32L832 735.8720000000001zM191.808 66.75199999999995L188.672 704l573.312-319.488L191.808 66.75199999999995z"  horiz-adv-x="1024" />
      
      <glyph glyph-name="edit" unicode="&#58990;" d="M853.333333 394.666667c-17.066667 0-32-14.933333-32-32v-320c0-6.4-4.266667-10.666667-10.666666-10.666667H170.666667c-6.4 0-10.666667 4.266667-10.666667 10.666667V682.666667c0 6.4 4.266667 10.666667 10.666667 10.666666h320c17.066667 0 32 14.933333 32 32s-14.933333 32-32 32H170.666667c-40.533333 0-74.666667-34.133333-74.666667-74.666666v-640c0-40.533333 34.133333-74.666667 74.666667-74.666667h640c40.533333 0 74.666667 34.133333 74.666666 74.666667V362.66666699999996c0 17.066667-14.933333 32-32 32zM405.333333 411.733333l-32-125.866666c-2.133333-10.666667 0-23.466667 8.533334-29.866667 6.4-6.4 14.933333-8.533333 23.466666-8.533333h8.533334l125.866666 32c6.4 2.133333 10.666667 4.266667 14.933334 8.533333l300.8 300.8c38.4 38.4 38.4 102.4 0 140.8-38.4 38.4-102.4 38.4-140.8 0L413.866667 426.666667c-4.266667-4.266667-6.4-8.533333-8.533334-14.933334z m59.733334-23.466666L761.6 682.666667c12.8 12.8 36.266667 12.8 49.066667 0 12.8-12.8 12.8-36.266667 0-49.066667L516.266667 337.06666700000005l-66.133334-17.066667 14.933334 68.266667z"  horiz-adv-x="1024" />
      
      <glyph glyph-name="jiahao" unicode="&#60280;" d="M512 384V725.333333h42.666667v-341.333333h341.333333v-42.666667h-341.333333v-341.333333h-42.666667v341.333333H170.666667v42.666667h341.333333z"  horiz-adv-x="1024" />
      
      <glyph glyph-name="aixin" unicode="&#59563;" d="M667.786667 778.666667C832.864 778.666667 938.666667 646.293333 938.666667 468.138667c0-138.250667-125.098667-290.506667-371.573334-461.589334a96.768 96.768 0 0 0-110.186666 0C210.432 177.63199999999995 85.333333 329.88800000000003 85.333333 468.138667 85.333333 646.293333 191.136 778.666667 356.213333 778.666667c59.616 0 100.053333-20.832 155.786667-68.096C567.744 757.8240000000001 608.170667 778.666667 667.786667 778.666667z m0-63.146667c-41.44 0-70.261333-15.189333-116.96-55.04-2.165333-1.845333-14.4-12.373333-17.941334-15.381333a32.32 32.32 0 0 0-41.770666 0c-3.541333 3.018667-15.776 13.536-17.941334 15.381333-46.698667 39.850667-75.52 55.04-116.96 55.04C230.186667 715.52 149.333333 614.7413329999999 149.333333 469.301333 149.333333 358.4 262.858667 220.75733300000002 493.632 61.17333299999996a32.352 32.352 0 0 1 36.736 0C761.141333 220.746667 874.666667 358.4 874.666667 469.301333c0 145.44-80.853333 246.218667-206.88 246.218667z"  horiz-adv-x="1024" />
      
      <glyph glyph-name="aixin1" unicode="&#59587;" d="M667.786667 778.666667C832.864 778.666667 938.666667 646.293333 938.666667 468.138667c0-138.250667-125.098667-290.506667-371.573334-461.589334a96.768 96.768 0 0 0-110.186666 0C210.432 177.63199999999995 85.333333 329.88800000000003 85.333333 468.138667 85.333333 646.293333 191.136 778.666667 356.213333 778.666667c59.616 0 100.053333-20.832 155.786667-68.096C567.744 757.8240000000001 608.170667 778.666667 667.786667 778.666667z"  horiz-adv-x="1024" />
      
      <glyph glyph-name="xinjian" unicode="&#58894;" d="M904.2 551.7c-21.5 50.7-52.2 96.3-91.3 135.4s-84.6 69.8-135.4 91.3C625 800.5 569.3 811.8 511.8 811.8S398.5 800.5 346 778.3c-50.7-21.5-96.3-52.2-135.4-91.3s-69.8-84.6-91.3-135.4c-22.2-52.5-33.5-108.3-33.5-165.8S97.1 272.5 119.3 220c21.5-50.7 52.2-96.3 91.3-135.4 39.1-39.1 84.6-69.8 135.4-91.3 52.5-22.2 108.3-33.5 165.8-33.5s113.3 11.3 165.8 33.5c50.7 21.5 96.3 52.2 135.4 91.3 39.1 39.1 69.8 84.6 91.3 135.4 22.2 52.5 33.5 108.3 33.5 165.8s-11.4 113.4-33.6 165.9zM511.8 20C310 20 145.9 184.2 145.9 385.9S310 751.8 511.8 751.8c201.7 0 365.9-164.1 365.9-365.9 0-201.7-164.2-365.9-365.9-365.9zM737 415H542V610c0 16.5-13.5 30-30 30s-30-13.5-30-30v-195H287c-16.5 0-30-13.5-30-30s13.5-30 30-30h195v-195c0-16.5 13.5-30 30-30s30 13.5 30 30V355h195c16.5 0 30 13.5 30 30s-13.5 30-30 30z"  horiz-adv-x="1024" />
      
      <glyph glyph-name="folder-add" unicode="&#59345;" d="M484 452.9V368h-84.5c-4.1 0-7.5-3.1-7.5-7v-42c0-3.8 3.4-7 7.5-7H484v-84.9c0-3.9 3.2-7.1 7-7.1h42c3.9 0 7 3.2 7 7.1V312h84.5c4.1 0 7.5 3.2 7.5 7v42c0 3.9-3.4 7-7.5 7H540v84.9c0 3.9-3.1 7.1-7 7.1h-42c-3.8 0-7-3.2-7-7.1zM880 597.6H521L403.7 709.8c-1.5 1.4-3.5 2.2-5.5 2.2H144c-17.7 0-32-14.3-32-32v-592c0-17.7 14.3-32 32-32h736c17.7 0 32 14.3 32 32V565.6c0 17.7-14.3 32-32 32zM840 128H184V640h188.5l119.6-114.4H840V128z"  horiz-adv-x="1024" />
      
      <glyph glyph-name="heart1" unicode="&#59359;" d="M923 612.4c-13.4 31.1-32.6 58.9-56.9 82.8-24.3 23.8-52.5 42.4-84 55.5-32.5 13.5-66.9 20.3-102.4 20.3-49.3 0-97.4-13.5-139.2-39-10-6.1-19.5-12.8-28.5-20.1-9 7.3-18.5 14-28.5 20.1-41.8 25.5-89.9 39-139.2 39-35.5 0-69.9-6.8-102.4-20.3-31.4-13-59.7-31.7-84-55.5-24.4-23.9-43.5-51.7-56.9-82.8-13.9-32.3-21-66.6-21-101.9 0-33.3 6.8-68 20.3-103.3 11.3-29.5 27.5-60.1 48.2-91 32.8-48.9 77.9-99.9 133.9-151.6 92.8-85.7 184.7-144.9 188.6-147.3l23.7-15.2c10.5-6.7 24-6.7 34.5 0l23.7 15.2c3.9 2.5 95.7 61.6 188.6 147.3 56 51.7 101.1 102.7 133.9 151.6 20.7 30.9 37 61.5 48.2 91 13.5 35.3 20.3 70 20.3 103.3 0.1 35.3-7 69.6-20.9 101.9zM512 81.20000000000005S156 309.29999999999995 156 510.5C156 612.4 240.3 695 344.3 695c73.1 0 136.5-40.8 167.7-100.4C543.2 654.2 606.6 695 679.7 695c104 0 188.3-82.6 188.3-184.5 0-201.2-356-429.3-356-429.3z"  horiz-adv-x="1024" />
      
      <glyph glyph-name="pause1" unicode="&#60014;" d="M320-42.66666699999996a21.333333 21.333333 0 0 0-21.333333 21.333334V789.333333a21.333333 21.333333 0 0 0 42.666666 0v-810.666666a21.333333 21.333333 0 0 0-21.333333-21.333334z m405.333333 21.333334V789.333333a21.333333 21.333333 0 0 1-42.666666 0v-810.666666a21.333333 21.333333 0 0 1 42.666666 0z"  horiz-adv-x="1024" />
      
      <glyph glyph-name="shanchu1" unicode="&#59160;" d="M840 608H688v56c0 40-32 72-72 72h-208C368 736 336 704 336 664V608h-152c-12.8 0-24-11.2-24-24s11.2-24 24-24h656c12.8 0 24 11.2 24 24s-11.2 24-24 24zM384 608v56c0 12.8 11.2 24 24 24h208c12.8 0 24-11.2 24-24V608H384zM758.4 512c-12.8 0-24-11.2-24-24v-363.2c0-24-19.2-44.8-44.8-44.8H332.8c-24 0-44.8 19.2-44.8 44.8V488c0 12.8-11.2 24-24 24s-24-11.2-24-24v-363.2c0-51.2 41.6-92.8 92.8-92.8h358.4c51.2 0 92.8 41.6 92.8 92.8V488c-1.6 12.8-12.8 24-25.6 24zM444.8 152v336c0 12.8-11.2 24-24 24s-24-11.2-24-24v-336c0-12.8 11.2-24 24-24s24 11.2 24 24zM627.2 152v336c0 12.8-11.2 24-24 24s-24-11.2-24-24v-336c0-12.8 11.2-24 24-24s24 11.2 24 24z"  horiz-adv-x="1024" />
      
      <glyph glyph-name="download" unicode="&#59375;" d="M505.7 235c3.2-4.1 9.4-4.1 12.6 0l112 141.7c4.1 5.2 0.4 12.9-6.3 12.9h-74.1V728c0 4.4-3.6 8-8 8h-60c-4.4 0-8-3.6-8-8v-338.3H400c-6.7 0-10.4-7.7-6.3-12.9l112-141.8zM878 270h-60c-4.4 0-8-3.6-8-8v-154H214V262c0 4.4-3.6 8-8 8h-60c-4.4 0-8-3.6-8-8v-198c0-17.7 14.3-32 32-32h684c17.7 0 32 14.3 32 32V262c0 4.4-3.6 8-8 8z"  horiz-adv-x="1024" />
      
      <glyph glyph-name="icretangle" unicode="&#58936;" d="M416 576l192-192-192-192v384z"  horiz-adv-x="1024" />
      
      <glyph glyph-name="gerenzhongxin" unicode="&#58891;" d="M512 808.96c-136.704 0-247.808-111.104-247.808-247.808 0-98.816 58.368-184.32 142.336-223.744-155.136-45.568-268.8-188.928-268.8-358.912 0-10.752 8.704-19.456 19.456-19.456 10.752 0 19.456 8.704 19.456 19.456 0 184.832 150.528 335.36 335.36 335.36 136.704 0 247.808 111.104 247.808 247.808S648.704 808.96 512 808.96z m0-456.192c-115.2 0-208.384 93.696-208.384 208.384 0 115.2 93.696 208.384 208.384 208.384 115.2 0 208.384-93.696 208.384-208.384 0-114.688-93.184-208.384-208.384-208.384z m226.816-76.8c-8.704 6.656-20.992 5.12-27.648-3.584-6.656-8.704-5.12-20.992 3.584-27.648 83.968-64 132.096-161.28 132.096-266.752 0-10.752 8.704-19.456 19.456-19.456 10.752 0 19.456 8.704 19.456 19.456 0.512 118.272-53.248 226.816-146.944 297.984z"  horiz-adv-x="1024" />
      
      <glyph glyph-name="tuichudenglu" unicode="&#58952;" d="M482.464 384V738.464a29.536 29.536 0 0 0 59.072 0V384a29.504 29.504 0 1 0-59.072 0z m344.064 220.256a383.04 383.04 0 0 1-94.208 94.368l-0.096-0.096a29.472 29.472 0 1 1-33.824-48.384c0.128-0.096 0.288-0.096 0.416-0.192 40-28.128 50.976-39.104 79.328-79.584 102.752-146.752 66.976-349.792-79.808-452.544a325.824 325.824 0 0 0-372.736-0.064 323.84 323.84 0 0 0-79.712 79.904c-49.792 71.008-68.896 157.28-53.824 242.72s62.528 159.968 133.664 209.728c0.224 0.16 0.48 0.288 0.672 0.48l-0.16 0.16A29.504 29.504 0 0 1 291.776 698.56c-0.096-0.064-0.128-0.224-0.256-0.256l-0.032 0.032C118.016 576.64 75.904 337.344 197.472 163.744a383.04 383.04 0 0 1 94.208-94.368c128.448-89.952 304.64-95.072 440.544 0.064 173.728 121.664 215.936 361.12 94.304 534.816z"  horiz-adv-x="1024" />
      
      <glyph glyph-name="shoucang" unicode="&#59577;" d="M335.008-20.629332999999974c-35.914667-22.314667-82.88-10.773333-104.693333 25.557333a77.333333 77.333333 0 0 0-8.96 57.429333l46.485333 198.24a13.141333 13.141333 0 0 1-4.021333 12.864l-152.16 132.586667c-31.605333 27.52-35.253333 75.648-8.234667 107.733333a75.68 75.68 0 0 0 51.733333 26.752L354.848 556.8c4.352 0.362667 8.245333 3.232 10.026667 7.594667l76.938666 188.170666c16.032 39.2 60.618667 57.92 99.52 41.461334a76.309333 76.309333 0 0 0 40.832-41.461334l76.938667-188.16c1.781333-4.373333 5.674667-7.253333 10.026667-7.605333l199.712-16.277333c41.877333-3.413333 72.885333-40.458667 69.568-82.517334a76.938667 76.938667 0 0 0-26.08-51.978666l-152.16-132.586667c-3.541333-3.082667-5.141333-8.074667-4.021334-12.853333l46.485334-198.24c9.621333-41.013333-15.36-82.336-56.138667-92.224a75.285333 75.285333 0 0 0-57.525333 9.237333l-170.976 106.24a11.296 11.296 0 0 1-12.010667 0l-170.986667-106.24zM551.786667 139.96799999999996l170.976-106.24c2.624-1.621333 5.717333-2.122667 8.650666-1.408 6.410667 1.557333 10.56 8.426667 8.928 15.424l-46.485333 198.24a77.141333 77.141333 0 0 0 24.277333 75.733333L870.293333 454.293333c2.485333 2.165333 4.053333 5.312 4.330667 8.746667 0.565333 7.136-4.490667 13.173333-10.976 13.696l-199.712 16.288a75.989333 75.989333 0 0 0-64.064 47.168l-76.938667 188.16a12.309333 12.309333 0 0 1-6.538666 6.741333c-5.898667 2.496-12.725333-0.373333-15.328-6.741333l-76.949334-188.16a75.989333 75.989333 0 0 0-64.064-47.168l-199.701333-16.288a11.68 11.68 0 0 1-7.978667-4.181333 13.226667 13.226667 0 0 1 1.333334-18.261334l152.16-132.586666a77.141333 77.141333 0 0 0 24.277333-75.733334l-46.485333-198.229333a13.333333 13.333333 0 0 1 1.514666-9.877333c3.488-5.792 10.581333-7.530667 16.064-4.128l170.986667 106.229333a75.296 75.296 0 0 0 79.562667 0z"  horiz-adv-x="1024" />
      
      <glyph glyph-name="shoucang-ok" unicode="&#59590;" d="M335.008-20.629332999999974c-35.914667-22.314667-82.88-10.773333-104.693333 25.557333a77.333333 77.333333 0 0 0-8.96 57.429333l46.485333 198.24a13.141333 13.141333 0 0 1-4.021333 12.864l-152.16 132.586667c-31.605333 27.52-35.253333 75.648-8.234667 107.733333a75.68 75.68 0 0 0 51.733333 26.752L354.848 556.8c4.352 0.362667 8.245333 3.232 10.026667 7.594667l76.938666 188.170666c16.032 39.2 60.618667 57.92 99.52 41.461334a76.309333 76.309333 0 0 0 40.832-41.461334l76.938667-188.16c1.781333-4.373333 5.674667-7.253333 10.026667-7.605333l199.712-16.277333c41.877333-3.413333 72.885333-40.458667 69.568-82.517334a76.938667 76.938667 0 0 0-26.08-51.978666l-152.16-132.586667c-3.541333-3.082667-5.141333-8.074667-4.021334-12.853333l46.485334-198.24c9.621333-41.013333-15.36-82.336-56.138667-92.224a75.285333 75.285333 0 0 0-57.525333 9.237333l-170.976 106.24a11.296 11.296 0 0 1-12.010667 0l-170.986667-106.24z"  horiz-adv-x="1024" />
      
      <glyph glyph-name="bofang1" unicode="&#59516;" d="M128 757.333333c0 47.232 33.322667 66.666667 74.176 43.562667l663.146667-374.954667c40.96-23.168 40.853333-60.8 0-83.882666L202.176-32.89599999999996C161.216-56.063999999999965 128-36.56533300000001 128 10.666666999999961v746.666666z"  horiz-adv-x="1024" />
      
      <glyph glyph-name="play-count" unicode="&#60013;" d="M224-42.713333000000034a53.58 53.58 0 0 0-53.333333 53.433333V757.28a53.333333 53.333333 0 0 0 80.886666 45.666667l618.666667-373.28a53.333333 53.333333 0 0 0 0-91.333334l-618.666667-373.28a53.16 53.16 0 0 0-27.553333-7.766666z m0.046667 810.666666a10.98 10.98 0 0 1-5.333334-1.42 10.466667 10.466667 0 0 1-5.38-9.253333v-746.56a10.666667 10.666667 0 0 1 16.18-9.133333l618.666667 373.28a10.666667 10.666667 0 0 1 0 18.266666l-618.666667 373.28a10.386667 10.386667 0 0 1-5.446666 1.586667z"  horiz-adv-x="1024" />
      
      <glyph glyph-name="shuffle" unicode="&#60021;" d="M682.48 598.366667L332.666667 143.613333A149.333333 149.333333 0 0 0 214.306667 85.33333300000004H64a21.333333 21.333333 0 0 0 0 42.666667h150.306667a107.333333 107.333333 0 0 1 84.546666 41.633333L648.666667 624.386667A149.333333 149.333333 0 0 0 767.026667 682.666667h141.473333l-48.92 48.913333a21.333333 21.333333 0 0 0 30.173333 30.173333l85.333334-85.333333a21.333333 21.333333 0 0 0 0-30.173333l-85.333334-85.333334a21.333333 21.333333 0 0 0-30.173333 30.173334l48.92 48.913333h-141.473333a107.333333 107.333333 0 0 1-84.546667-41.633333zM64 640h150.306667a107.333333 107.333333 0 0 0 84.546666-41.633333l109.26-142.04a21.333333 21.333333 0 0 1 33.82 26L332.666667 624.386667A149.333333 149.333333 0 0 1 214.306667 682.666667H64a21.333333 21.333333 0 0 1 0-42.666667z m825.753333-432.913333a21.333333 21.333333 0 0 1-30.173333-30.173334l48.92-48.913333h-141.473333a107.333333 107.333333 0 0 0-84.546667 41.633333L573.22 311.67333299999996a21.333333 21.333333 0 0 1-33.82-26L648.666667 143.613333a149.333333 149.333333 0 0 1 118.36-58.28h141.473333l-48.92-48.913333a21.333333 21.333333 0 0 1 30.173333-30.173333l85.333334 85.333333a21.333333 21.333333 0 0 1 0 30.173333z"  horiz-adv-x="1024" />
      
      <glyph glyph-name="repeat" unicode="&#60022;" d="M192 106.66666699999996a21.24 21.24 0 0 0-12.8 4.28 344.513333 344.513333 0 0 0-99.333333 118A341.246667 341.246667 0 0 0 384 725.333333h256q6.36 0 12.733333-0.233333l-49.153333 49.146667a21.333333 21.333333 0 0 0 30.173333 30.173333l85.333334-85.333333a21.333333 21.333333 0 0 0 0-30.173334l-85.333334-85.333333a21.333333 21.333333 0 0 0-30.173333 30.173333l48.666667 48.666667Q646.126667 682.666667 640 682.666667H384c-164.666667 0-298.666667-134-298.666667-298.666667 0-94.833333 43.546667-181.933333 119.48-238.966667A21.333333 21.333333 0 0 0 192 106.66666699999996z m228.433333-143.06a21.333333 21.333333 0 0 1 0 30.173333l-49.153333 49.146667q6.366667-0.233333 12.733333-0.233334H640a341.46 341.46 0 0 1 304.146667 496.42 344.513333 344.513333 0 0 1-99.333334 118 21.333333 21.333333 0 1 1-25.626666-34.113333C895.12 565.933333 938.666667 478.833333 938.666667 384c0-164.666667-134-298.666667-298.666667-298.666667H384q-6.12 0-12.246667 0.246667l48.666667 48.666667a21.333333 21.333333 0 0 1-30.173333 30.173333l-85.333334-85.333333a21.333333 21.333333 0 0 1 0-30.173334l85.333334-85.333333a21.333333 21.333333 0 0 1 30.173333 0z"  horiz-adv-x="1024" />
      
      <glyph glyph-name="repeatOnce" unicode="&#60023;" d="M192 106.66666699999996a21.24 21.24 0 0 0-12.8 4.28 344.513333 344.513333 0 0 0-99.333333 118A341.246667 341.246667 0 0 0 384 725.333333h256q6.36 0 12.733333-0.233333l-49.153333 49.146667a21.333333 21.333333 0 0 0 30.173333 30.173333l85.333334-85.333333a21.333333 21.333333 0 0 0 0-30.173334l-85.333334-85.333333a21.333333 21.333333 0 0 0-30.173333 30.173333l48.666667 48.666667Q646.126667 682.666667 640 682.666667H384c-164.666667 0-298.666667-134-298.666667-298.666667 0-94.833333 43.546667-181.933333 119.48-238.966667A21.333333 21.333333 0 0 0 192 106.66666699999996z m228.433333-143.06a21.333333 21.333333 0 0 1 0 30.173333l-49.153333 49.146667q6.366667-0.233333 12.733333-0.233334H640a341.46 341.46 0 0 1 304.146667 496.42 344.513333 344.513333 0 0 1-99.333334 118 21.333333 21.333333 0 1 1-25.626666-34.113333C895.12 565.933333 938.666667 478.833333 938.666667 384c0-164.666667-134-298.666667-298.666667-298.666667H384q-6.12 0-12.246667 0.246667l48.666667 48.666667a21.333333 21.333333 0 0 1-30.173333 30.173333l-85.333334-85.333333a21.333333 21.333333 0 0 1 0-30.173334l85.333334-85.333333a21.333333 21.333333 0 0 1 30.173333 0zM554.666667 277.33333300000004V490.666667a21.333333 21.333333 0 0 1-21.333334 21.333333h-42.666666a21.333333 21.333333 0 0 1 0-42.666667h21.333333v-192a21.333333 21.333333 0 0 1 42.666667 0z"  horiz-adv-x="1024" />
      
      <glyph glyph-name="redo" unicode="&#60272;" d="M859.58 560.913333a21.333333 21.333333 0 0 1 30.173333 0l85.333334 85.333334a21.333333 21.333333 0 0 1 0 30.173333l-85.333334 85.333333a21.333333 21.333333 0 0 1-30.173333-30.173333l48.913333-48.913333H341.333333a298.666667 298.666667 0 1 1 0-597.333334h576a21.333333 21.333333 0 0 1 0 42.666667H341.333333c-141.16 0-256 114.84-256 256s114.84 256 256 256h567.16l-48.913333-48.913333a21.333333 21.333333 0 0 1 0-30.173334z"  horiz-adv-x="1024" />
      
      <glyph glyph-name="bofang" unicode="&#58918;" d="M512 896C230.4 896 0 665.6 0 384s230.4-512 512-512 512 230.4 512 512S793.6 896 512 896z m0-981.333333C253.866667-85.333333 42.666667 125.866667 42.666667 384S253.866667 853.333333 512 853.333333s469.333333-211.2 469.333333-469.333333-211.2-469.333333-469.333333-469.333333zM672 454.4l-170.666667 113.066667c-57.6 38.4-106.666667 12.8-106.666666-57.6v-256c0-70.4 46.933333-96 106.666666-57.6l170.666667 113.066666c57.6 42.666667 57.6 106.666667 0 145.066667z"  horiz-adv-x="1024" />
      
      <glyph glyph-name="xiazai" unicode="&#58893;" d="M923.3 88.9c-32.1-55.5-91.8-90-155.8-90h-488c-64.1 0-123.8 34.5-155.8 90-8 13.9-3.3 31.6 10.6 39.6 13.9 8.1 31.6 3.3 39.6-10.6 21.7-37.6 62.2-61 105.6-61h488.1c43.4 0 83.9 23.4 105.6 61 8 13.8 25.9 18.6 39.6 10.6 13.8-8 18.6-25.7 10.5-39.6zM503 181.4c2.7-2.7 5.9-4.8 9.5-6.3 3.5-1.5 7.3-2.2 11.1-2.2s7.5 0.8 11.1 2.2c3.6 1.5 6.8 3.6 9.5 6.3l213.7 213.7c11.3 11.3 11.3 29.6 0 41s-29.6 11.3-41 0L552.5 271.8V803.2c0 16-13 29-29 29s-29-13-29-29v-531.4L330.3 436.1c-11.3 11.3-29.6 11.3-41 0s-11.3-29.6 0-41L503 181.4z"  horiz-adv-x="1024" />
      
      <glyph glyph-name="renzheng" unicode="&#58967;" d="M512.5 817c22.108 0 44.217-8.434 61.08-25.3l77.944-77.947h107.59c47.71 0 86.38-38.674 86.38-86.38l-0.001-35.825h0.584v-59.814l-0.584 0.001v-11.951l74.205-74.205c33.736-33.733 33.736-88.426 0-122.16l-74.205-74.205v-111.329c0-47.706-38.67-86.38-86.38-86.38H647.786l-74.205-74.204C556.716-39.56600000000003 534.608-48 512.5-48c-22.11 0-44.218 8.434-61.081 25.3l-74.205 74.205H269.626c-47.704 0-86.38 38.674-86.38 86.38V245.47199999999998l-77.944 77.947c-33.736 33.733-33.736 88.426 0 122.16l77.943 77.947V627.3720000000001c0 47.705 38.677 86.38 86.38 86.38h103.85l77.943 77.947C468.283 808.565 490.39 817 512.498 817z m0-57.589c-4.457 0-13.027-1.095-20.366-8.435l-77.938-77.943a57.597 57.597 0 0 0-40.723-16.867H269.625c-15.88 0-28.795-12.918-28.795-28.794v-103.848a57.591 57.591 0 0 0-16.862-40.719l-77.945-77.947c-7.338-7.34-8.435-15.907-8.435-20.36 0-4.455 1.097-13.023 8.428-20.36l77.952-77.948a57.591 57.591 0 0 0 16.862-40.719v-107.585c0-15.878 12.915-28.795 28.795-28.795h107.59a57.6 57.6 0 0 0 40.723-16.867l74.205-74.205c7.338-7.338 15.9-8.433 20.357-8.433 4.457 0 13.026 1.095 20.365 8.434l74.197 74.204a57.597 57.597 0 0 0 40.723 16.867h111.326c15.881 0 28.795 12.917 28.795 28.794v111.33a57.592 57.592 0 0 0 16.864 40.72l74.204 74.204c7.339 7.34 8.435 15.906 8.435 20.36 0 4.454-1.096 13.023-8.427 20.359l-74.212 74.206a57.593 57.593 0 0 0-16.863 40.72l-0.001 11.951-1.643-0.001v59.814h1.643v35.824c0 15.718-12.656 28.535-28.318 28.79l-0.475 0.003H651.525a57.597 57.597 0 0 0-40.723 16.868l-77.945 77.946c-7.331 7.337-15.9 8.432-20.357 8.432z m160.077-285.628l0.01-0.01c11.677-11.676 11.677-30.608 0-42.285L509.905 268.80600000000004c-8.303-8.303-20.274-10.702-30.697-7.197a29.757 29.757 0 0 0-13.636 7.533l-81.098 78.316c-11.879 11.471-12.21 30.4-0.738 42.278l0.01 0.01c11.47 11.88 30.4 12.21 42.278 0.738l61.54-59.428 142.728 142.727c11.677 11.677 30.608 11.677 42.285 0z"  horiz-adv-x="1024" />
      
      <glyph glyph-name="radio" unicode="&#58919;" d="M512 554.666667a128 128 0 0 1-42.666667-248.746667 42.666667 42.666667 0 0 1 0-7.253333v-256a42.666667 42.666667 0 0 1 85.333334 0v256a42.666667 42.666667 0 0 1 0 7.253333A128 128 0 0 1 512 554.666667zM149.333333 426.666667a293.12 293.12 0 0 0 112.64 223.146666 42.666667 42.666667 0 1 1-54.613333 65.706667A377.173333 377.173333 0 0 1 64 426.666667a377.173333 377.173333 0 0 1 143.36-288.853334 42.666667 42.666667 0 1 1 54.613333 65.706667A293.12 293.12 0 0 0 149.333333 426.666667zM709.973333 629.76a42.666667 42.666667 0 0 1-54.613333-64.853333A182.613333 182.613333 0 0 0 725.333333 426.666667a182.613333 182.613333 0 0 0-69.973333-138.24A42.666667 42.666667 0 0 1 682.666667 213.33333300000004a42.666667 42.666667 0 0 1 27.306666 10.24A264.533333 264.533333 0 0 1 810.666667 426.666667a264.533333 264.533333 0 0 1-100.693334 203.093333zM373.76 624.64a42.666667 42.666667 0 0 1-59.733333 5.12A264.533333 264.533333 0 0 1 213.333333 426.666667a264.533333 264.533333 0 0 1 100.693334-203.093334 42.666667 42.666667 0 0 1 59.733333 5.12 42.666667 42.666667 0 0 1-5.12 59.733334A182.613333 182.613333 0 0 0 298.666667 426.666667a182.613333 182.613333 0 0 0 69.973333 138.24 42.666667 42.666667 0 0 1 5.12 59.733333zM816.64 715.52a42.666667 42.666667 0 1 1-54.613333-65.706667A293.12 293.12 0 0 0 874.666667 426.666667a293.12 293.12 0 0 0-112.64-223.146667 42.666667 42.666667 0 0 1 54.613333-65.706667A377.173333 377.173333 0 0 1 960 426.666667a377.173333 377.173333 0 0 1-143.36 288.853333z"  horiz-adv-x="1024" />
      
      <glyph glyph-name="home" unicode="&#58888;" d="M1002.7584 420.224L566.2784 856.32 537.1584 885.76a35.584 35.584 0 0 1-50.176 0L21.2544 420.224A72.192 72.192 0 0 1 0.0064 368.256a72.96 72.96 0 0 1 73.28-71.488h48v-367.872h781.44V296.768h49.024c19.264 0 37.44 7.552 51.136 21.184 13.696 13.696 21.12 31.872 21.12 51.2 0 19.2-7.552 37.376-21.248 51.072z m-427.52-410.048H448.7744v230.4h126.464v-230.4z m246.144 367.872v-367.872h-173.824V267.712a45.184 45.184 0 0 1-45.184 45.184H421.6384a45.184 45.184 0 0 1-45.184-45.184v-257.536H202.6304V378.048H94.2144l417.92 417.6 26.048-26.112 391.68-391.488h-108.48z"  horiz-adv-x="1024" />
      
      <glyph glyph-name="playlistMusic" unicode="&#60038;" d="M42.666667 789.333333a21.333333 21.333333 0 0 0 21.333333 21.333334h896a21.333333 21.333333 0 0 0 0-42.666667H64a21.333333 21.333333 0 0 0-21.333333 21.333333z m21.333333-405.333333h597.333333a21.333333 21.333333 0 0 1 0 42.666667H64a21.333333 21.333333 0 0 1 0-42.666667z m384-341.333333H64a21.333333 21.333333 0 0 1 0-42.666667h384a21.333333 21.333333 0 0 1 0 42.666667z m532.853333 324.513333c-4.5 20.773333-14.666667 50.513333-37.466666 74.266667-11.04 11.493333-23.64 20.093333-37.493334 25.606666-10.306667 7.126667-19.44 16.58-27.153333 28.133334-19.64 29.393333-24.373333 64.04-25.446667 82.08A21.333333 21.333333 0 0 1 810.666667 576v-479.586667c-1.413333 1.02-2.846667 2-4.326667 3.006667-27.64 18.433333-64 28.58-102.34 28.58s-74.666667-10.146667-102.34-28.58c-14.253333-9.5-25.56-20.746667-33.613333-33.44-8.88-14-13.38-29.013333-13.38-44.666667s4.5-30.666667 13.38-44.666666c8.053333-12.666667 19.333333-23.94 33.613333-33.44C629.333333-75.18666700000006 665.646667-85.33333300000004 704-85.33333300000004s74.666667 10.146667 102.34 28.58c14.253333 9.5 25.56 20.746667 33.613333 33.44 8.88 14 13.38 29.013333 13.38 44.666666V458a140.893333 140.893333 0 0 1 30.966667-27.82A21.18 21.18 0 0 1 888.666667 428c8.713333-3.2 16.773333-8.606667 23.953333-16.086667 16.733333-17.42 23.806667-41.146667 26.533333-53.733333a21.333333 21.333333 0 1 1 41.706667 9.026667z"  horiz-adv-x="1024" />
      
      <glyph glyph-name="icon-list" unicode="&#58946;" d="M143.36 291.63520000000005h122.88a20.48 20.48 0 0 1 0 40.96H143.36a20.48 20.48 0 0 1 0-40.96zM880.64 4.915200000000027H143.36a20.48 20.48 0 0 1 0-40.96h737.28a20.48 20.48 0 0 1 0 40.96zM778.24 803.6351999999999a204.8 204.8 0 0 1-30.9248-2.6624 20.48 20.48 0 0 1-30.5152-15.36l-47.9232-449.1264A189.8496 189.8496 0 0 1 512 414.5152c-102.4 0-184.32-73.3184-184.32-163.84s81.92-163.84 184.32-163.84a184.32 184.32 0 0 1 171.2128 103.424 20.48 20.48 0 0 1 13.5168 16.9984l58.5728 552.96A157.4912 157.4912 0 0 0 778.24 762.6752a163.84 163.84 0 0 0 162.2016-143.36 204.8 204.8 0 0 0 40.96-40.96v20.48a204.8 204.8 0 0 1-203.1616 204.8z m-266.24-675.84c-79.2576 0-143.36 55.0912-143.36 122.88s64.1024 122.88 143.36 122.88 143.36-55.0912 143.36-122.88-64.1024-122.88-143.36-122.88zM143.36 619.3152h450.56a20.48 20.48 0 1 1 0 40.96H143.36a20.48 20.48 0 1 1 0-40.96zM61.44 312.11519999999996m-20.48 0a20.48 20.48 0 1 1 40.96 0 20.48 20.48 0 1 1-40.96 0ZM61.44 639.7952m-20.48 0a20.48 20.48 0 1 1 40.96 0 20.48 20.48 0 1 1-40.96 0ZM61.44-15.564799999999991m-20.48 0a20.48 20.48 0 1 1 40.96 0 20.48 20.48 0 1 1-40.96 0Z"  horiz-adv-x="1024" />
      
      <glyph glyph-name="heart" unicode="&#59546;" d="M961.206667 654.3199999999999A256.066667 256.066667 0 0 1 512 696.24 256 256 0 0 1 42.666667 554.666667c0-35.96 1.826667-66.606667 10.753333-99.293334 10.06-36.84 28.233333-72.96 57.193333-113.673333 30.993333-43.56 75.62-93.766667 136.44-153.48 63.013333-61.866667 145.153333-135.733333 251.133334-225.806667a21.333333 21.333333 0 0 1 27.626666 0c106 90.073333 188.12 163.94 251.133334 225.806667 60.82 59.713333 105.446667 109.92 136.44 153.48 28.96 40.713333 47.133333 76.833333 57.193333 113.673333 8.926667 32.666667 10.753333 63.333333 10.753333 99.293334a254.433333 254.433333 0 0 1-20.126666 99.653333z"  horiz-adv-x="1024" />
      
      <glyph glyph-name="volumeDisable" unicode="&#59919;" d="M0.002433 224V544a53.393333 53.393333 0 0 0 53.333334 53.333333h172.5l207.08 207.086667A21.333333 21.333333 0 0 0 469.335767 789.333333v-189.413333L41.435767 172A53.42 53.42 0 0 0 0.002433 224z m633.753334 452.42a21.333333 21.333333 0 0 1-30.173334 0l-597.333333-597.333333a21.333333 21.333333 0 0 1 30.173333-30.173334L158.1691 170.66666699999996h67.666667l207.08-207.086667A21.333333 21.333333 0 0 1 469.335767-21.33333300000004V481.833333l164.42 164.413334a21.333333 21.333333 0 0 1 0 30.173333z"  horiz-adv-x="1024" />
      
      <glyph glyph-name="volumeLow" unicode="&#59921;" d="M469.333333 789.333333v-810.666666a21.333333 21.333333 0 0 0-36.42-15.086667L225.833333 170.66666699999996H53.333333a53.393333 53.393333 0 0 0-53.333333 53.333333V544a53.393333 53.393333 0 0 0 53.333333 53.333333h172.5l207.08 207.086667A21.333333 21.333333 0 0 0 469.333333 789.333333z m176.753334-299.726666a21.333333 21.333333 0 0 1-33.486667-26.433334 127.366667 127.366667 0 0 0 0-158.346666 21.333333 21.333333 0 0 1 33.493333-26.433334 170.733333 170.733333 0 0 1 0 211.213334z"  horiz-adv-x="1024" />
      
      <glyph glyph-name="volumeHigh" unicode="&#59922;" d="M469.333333 789.333333v-810.666666a21.333333 21.333333 0 0 0-36.42-15.086667L225.833333 170.66666699999996H53.333333a53.393333 53.393333 0 0 0-53.333333 53.333333V544a53.393333 53.393333 0 0 0 53.333333 53.333333h172.5l207.08 207.086667A21.333333 21.333333 0 0 0 469.333333 789.333333z m146.793334-296.2a21.333333 21.333333 0 0 1-3.526667-29.96 127.366667 127.366667 0 0 0 0-158.346666 21.333333 21.333333 0 0 1 33.493333-26.433334 170.733333 170.733333 0 0 1 0 211.213334 21.333333 21.333333 0 0 1-29.966666 3.526666zM853.333333 384a340.32 340.32 0 0 1-100 241.333333 346.585333 346.585333 0 0 1-22.046666 20.213334 21.333333 21.333333 0 1 1-27.446667-32.666667c6.666667-5.586667 13.146667-11.553333 19.333333-17.726667C779.6 538.78 810.666667 463.78 810.666667 384s-31.066667-154.78-87.48-211.186667c-6.173333-6.173333-12.666667-12.14-19.333334-17.726666a21.333333 21.333333 0 1 1 27.446667-32.666667 346.585333 346.585333 0 0 1 22.046667 20.213333 340.32 340.32 0 0 1 100 241.333334z m133.173334 192.666667a508.806667 508.806667 0 0 1-112.466667 169.386666 518.346667 518.346667 0 0 1-57.533333 49.653334 21.333333 21.333333 0 0 1-25.42-34.273334 474.246667 474.246667 0 0 0 52.78-45.553333c182.993333-182.993333 182.993333-480.74 0-663.733333a474.853333 474.853333 0 0 0-52.78-45.553334 21.333333 21.333333 0 0 1 25.413333-34.273333 519.026667 519.026667 0 0 1 57.54 49.653333 512.546667 512.546667 0 0 1 112.466667 554.666667z"  horiz-adv-x="1024" />
      
      <glyph glyph-name="volumeMiddle" unicode="&#59923;" d="M469.333333 789.333333v-810.666666a21.333333 21.333333 0 0 0-36.42-15.086667L225.833333 170.66666699999996H53.333333a53.393333 53.393333 0 0 0-53.333333 53.333333V544a53.393333 53.393333 0 0 0 53.333333 53.333333h172.5l207.08 207.086667A21.333333 21.333333 0 0 0 469.333333 789.333333z m146.793334-296.2a21.333333 21.333333 0 0 1-3.526667-29.96 127.366667 127.366667 0 0 0 0-158.346666 21.333333 21.333333 0 0 1 33.493333-26.433334 170.733333 170.733333 0 0 1 0 211.213334 21.333333 21.333333 0 0 1-29.966666 3.526666z m212.213333 19.3A339.393333 339.393333 0 0 1 753.333333 625.333333a346.585333 346.585333 0 0 1-22.046666 20.213334 21.333333 21.333333 0 1 1-27.446667-32.666667c6.666667-5.586667 13.146667-11.553333 19.333333-17.726667C779.6 538.78 810.666667 463.78 810.666667 384s-31.066667-154.78-87.48-211.186667c-6.173333-6.173333-12.666667-12.14-19.333334-17.726666a21.333333 21.333333 0 1 1 27.446667-32.666667 346.585333 346.585333 0 0 1 22.046667 20.213333 341.706667 341.706667 0 0 1 74.98 369.793334z"  horiz-adv-x="1024" />
      
      <glyph glyph-name="next" unicode="&#60031;" d="M810.666667 384a52.92 52.92 0 0 0-25.78-45.666667l-618.666667-373.28a53.333333 53.333333 0 0 0-80.886667 45.666667V757.28a53.333333 53.333333 0 0 0 80.886667 45.666667l618.666667-373.28A52.92 52.92 0 0 0 810.666667 384z m128-405.333333V789.333333a21.333333 21.333333 0 0 1-42.666667 0v-810.666666a21.333333 21.333333 0 0 1 42.666667 0z"  horiz-adv-x="1024" />
      
      <glyph glyph-name="pause" unicode="&#60033;" d="M426.666667 757.333333v-746.666666a53.393333 53.393333 0 0 0-53.333334-53.333334H266.666667a53.393333 53.393333 0 0 0-53.333334 53.333334V757.333333a53.393333 53.393333 0 0 0 53.333334 53.333334h106.666666a53.393333 53.393333 0 0 0 53.333334-53.333334z m330.666666 53.333334H650.666667a53.393333 53.393333 0 0 1-53.333334-53.333334v-746.666666a53.393333 53.393333 0 0 1 53.333334-53.333334h106.666666a53.393333 53.393333 0 0 1 53.333334 53.333334V757.333333a53.393333 53.393333 0 0 1-53.333334 53.333334z"  horiz-adv-x="1024" />
      
      <glyph glyph-name="play" unicode="&#60034;" d="M870.2 429.666667l-618.666667 373.28a53.333333 53.333333 0 0 1-80.866666-45.666667v-746.56a53.206667 53.206667 0 0 1 80.886666-45.666667l618.666667 373.28a53.333333 53.333333 0 0 1 0 91.333334z"  horiz-adv-x="1024" />
      
      <glyph glyph-name="playlist" unicode="&#60035;" d="M981.333333-21.33333300000004a21.333333 21.333333 0 0 0-21.333333-21.333334H64a21.333333 21.333333 0 0 0 0 42.666667h896a21.333333 21.333333 0 0 0 21.333333-21.333333zM405.333333 725.333333h554.666667a21.333333 21.333333 0 0 1 0 42.666667H405.333333a21.333333 21.333333 0 0 1 0-42.666667z m554.666667-341.333333H64a21.333333 21.333333 0 0 1 0-42.666667h896a21.333333 21.333333 0 0 1 0 42.666667zM56.873333 643.106667a26.573333 26.573333 0 0 1 27.48 1.56l117.333334 80a26.666667 26.666667 0 0 1 0 44.066666l-117.333334 80A26.666667 26.666667 0 0 1 42.666667 826.666667v-160a26.6 26.6 0 0 1 14.206666-23.56z"  horiz-adv-x="1024" />
      
      <glyph glyph-name="previous" unicode="&#60040;" d="M213.333333 384a52.92 52.92 0 0 1 25.78-45.666667l618.666667-373.28a53.333333 53.333333 0 0 1 80.886667 45.666667V757.28a53.333333 53.333333 0 0 1-80.886667 45.666667L239.133333 429.666667A52.92 52.92 0 0 1 213.333333 384z m-128-405.333333V789.333333a21.333333 21.333333 0 0 0 42.666667 0v-810.666666a21.333333 21.333333 0 0 0-42.666667 0z"  horiz-adv-x="1024" />
      
      <glyph glyph-name="clockCircle" unicode="&#60224;" d="M533.333333 810.666667c-247.426667 0-448-200.573333-448-448s200.573333-448 448-448 448 200.573333 448 448-200.573333 448-448 448z m144.493334-591.006667a21.333333 21.333333 0 0 0-30.166667-0.153333l-129.333333 128A21.333333 21.333333 0 0 0 512 362.66666699999996V640a21.333333 21.333333 0 0 0 42.666667 0v-268.433333l123.006666-121.74a21.333333 21.333333 0 0 0 0.153334-30.166667z"  horiz-adv-x="1024" />
      
      <glyph glyph-name="vertical_line" unicode="&#58938;" d="M531.185-47.532c0-8.9-6.494-16.114-14.503-16.114h-9.364c-8.010 0-14.504 7.214-14.504 16.114v863.066c0 8.899 6.494 16.114 14.504 16.114h9.364c8.009 0 14.503-7.215 14.503-16.114v-863.066z"  horiz-adv-x="1024" />
      
      <glyph glyph-name="shezhimianban" unicode="&#58984;" d="M826.895862 360.257446l-35.511493-13.406356c-13.918049-5.219268-25.379972-15.964821-31.417949-29.575854l-4.195882-9.312812c-7.880072-17.602239-6.242654-37.660604 4.40056-53.727763l14.532081-21.90046c2.865481-4.40056 2.251449-10.23386-1.43274-13.918049l-58.025984-56.797921c-3.684189-3.581851-9.51749-4.195882-13.815711-1.330402l-20.263042 13.508695c-16.271837 10.847891-36.534879 12.485309-54.239456 4.40056l-11.6666-5.321607c-17.192884-7.777733-29.1665-23.537877-32.134319-42.163502l-3.991205-25.379972c-0.818709-5.219268-5.321607-8.494104-10.643214-9.51749l-92.821107 0c-5.321607 1.023386-9.824505 4.195882-10.643214 9.51749l-3.991205 25.277633c-2.967819 18.625625-14.941435 34.488107-32.134319 42.26584l-11.6666 5.321607c-17.704577 8.084749-38.069958 6.447332-54.239456-4.40056L342.731961 160.185489c-4.298221-2.865481-10.131521-2.353788-13.815711 1.330402l-58.025984 56.797921c-3.786528 3.684189-4.40056 9.51749-1.43274 13.918049l14.532081 21.90046c10.643214 16.06716 12.280632 36.227863 4.40056 53.727763l-4.195882 9.312812c-6.037977 13.508695-17.4999 24.356586-31.417949 29.575854l-35.511493 13.406356c-4.298221 1.637418-7.163702 5.8333-7.163702 10.438537l1.228063 79.210074c0.102339 5.321607 3.991205 9.824505 9.312812 10.745553l20.877074 3.274835c17.4999 2.763142 32.85069 13.713372 41.037777 29.371177l6.959025 13.406356c9.005797 17.192884 8.391765 38.172297-1.637418 54.751149l-13.918049 23.230861c-2.558465 4.298221-1.944433 9.722167 1.535079 13.304018l56.593244 58.435339c3.581851 3.684189 9.210474 4.40056 13.611033 1.739756l23.3332-14.327404c17.704577-10.847891 39.809714-11.052568 57.718969-0.511693l10.336198 6.140316c12.997002 7.675395 22.412153 20.467719 25.994004 35.102139l6.856686 28.143114c1.228063 4.912253 5.628623 8.391765 10.643214 8.391765l82.689586 0c5.11693 0 9.51749-3.479512 10.643214-8.391765l6.856686-28.143114c3.581851-14.634419 12.997002-27.426744 25.994004-35.102139l10.336198-6.140316c17.909254-10.540875 40.014391-10.336198 57.718969 0.511693l23.3332 14.327404c4.40056 2.763142 10.029182 2.046772 13.611033-1.739756l56.593244-58.435339c3.479512-3.581851 4.093544-9.005797 1.535079-13.304018l-13.918049-23.230861c-9.926844-16.578853-10.540875-37.558265-1.637418-54.751149l6.959025-13.406356c8.187088-15.657805 23.537877-26.710374 41.037777-29.371177l20.877074-3.274835c5.321607-0.818709 9.210474-5.321607 9.312812-10.745553l1.228063-79.210074C834.059564 366.090746 831.194084 361.894863 826.895862 360.257446zM877.758145 450.622427c-0.409354 27.324405-20.365381 50.248251-47.38277 54.444134l-20.877074 3.274835c-3.479512 0.511693-6.447332 2.660804-8.084749 5.730961l-6.959025 13.406356c-1.739756 3.377174-1.637418 7.470718 0.307016 10.745553l13.918049 23.230861c12.997002 21.695783 9.824505 49.634219-7.777733 67.748151l-56.593244 58.435339c-18.420947 19.034979-46.973416 22.61683-69.487907 8.801119l-23.3332-14.327404c-3.479512-2.149111-7.777733-2.149111-11.359584-0.102339l-10.336198 6.140316c-2.558465 1.535079-4.40056 3.991205-5.11693 6.856686l-6.856686 28.143114c-6.140316 25.175295-28.552469 42.777533-54.444134 42.777533l-82.689586 0c-25.994004 0-48.303818-17.602239-54.444134-42.777533l-6.856686-28.143114c-0.71637-2.865481-2.558465-5.423946-5.11693-6.856686l-10.336198-6.140316c-3.479512-2.046772-7.880072-2.046772-11.359584 0.102339l-23.3332 14.327404c-22.514491 13.815711-51.169298 10.23386-69.487907-8.801119l-56.593244-58.435339c-17.602239-18.21627-20.774735-46.052369-7.777733-67.748151l13.918049-23.230861c1.944433-3.274835 2.046772-7.368379 0.307016-10.745553l-6.959025-13.406356c-1.637418-3.070158-4.605237-5.219268-8.084749-5.730961l-20.877074-3.274835c-27.01739-4.195882-46.973416-27.119728-47.38277-54.444134l-1.228063-79.210074c-0.409354-23.537877 14.225065-45.028983 36.227863-53.318409l35.511493-13.406356c2.763142-1.023386 5.014591-3.172497 6.140316-5.8333l4.195882-9.312812c1.535079-3.479512 1.228063-7.368379-0.818709-10.540875l-14.532081-21.90046c-14.736758-22.309814-11.564261-52.192684 7.573056-70.920648l58.025984-56.797921c18.830302-18.420947 48.406156-21.18409 70.306616-6.54967l20.263042 13.508695c3.172497 2.149111 7.163702 2.456126 10.643214 0.818709l11.6666-5.321607c3.377174-1.535079 5.730961-4.605237 6.344993-8.289426l3.991205-25.072956c4.298221-26.812712 27.119728-46.6664 54.341795-47.178093l94.458525 0.102339c27.222067 0.511693 50.043574 20.263042 54.341795 47.178093l3.991205 25.072956c0.614032 3.684189 2.967819 6.754347 6.344993 8.289426l11.6666 5.321607c3.479512 1.535079 7.470718 1.228063 10.643214-0.818709l20.263042-13.508695c21.90046-14.634419 51.476314-11.871277 70.306616 6.54967l58.025984 56.797921c19.137318 18.727963 22.309814 48.610833 7.573056 70.920648l-14.532081 21.90046c-2.046772 3.172497-2.456126 7.061363-0.818709 10.540875l4.195882 9.312812c1.228063 2.660804 3.479512 4.809914 6.140316 5.8333l35.511493 13.406356c22.105137 8.289426 36.637218 29.780532 36.227863 53.318409L877.758145 450.622427zM521.722167 516.528483c-54.751149 0-99.268439-44.51729-99.268439-99.268439s44.51729-99.268439 99.268439-99.268439c54.751149 0 99.268439 44.51729 99.268439 99.268439S576.473316 516.528483 521.722167 516.528483zM521.722167 363.020588c-29.88287 0-54.239456 24.356586-54.239456 54.239456 0 29.88287 24.356586 54.239456 54.239456 54.239456 29.88287 0 54.239456-24.356586 54.239456-54.239456C575.961623 387.274835 551.707376 363.020588 521.722167 363.020588z"  horiz-adv-x="1024" />
      
      <glyph glyph-name="gexingzhuangban" unicode="&#58965;" d="M704.887079 263.664308l299.407114 38.017872-191.751209 234.415914 56.597019 298.138214-280.918018-110.969371L323.785338 869.512742l18.144242-302.996872-219.99753-207.757764 292.095591-76.260871L542.476105 7.819338 704.887079 263.664308 704.887079 263.664308zM550.086433 115.723907l-99.011015 211.784474-225.234811 58.81657 169.629375 160.207795-13.987572 233.596246 203.891713-112.803135 216.58071 85.617983-43.618427-229.889831 147.799184-180.731224-230.823086-29.341259L550.086433 115.723907 550.086433 115.723907zM311.585409 227.463274l37.092872-37.092872-291.874731-291.874731-37.092872 37.092872 291.874731 291.874731Z"  horiz-adv-x="1024" />
      
      <glyph glyph-name="sousuo" unicode="&#58951;" d="M845.31681 91.720967 669.806116 267.231661c39.298021 47.792125 60.686788 107.250849 60.686788 169.984409 0 71.637018-27.938437 138.975815-78.493704 189.63342-50.657605 50.657605-117.996402 78.493704-189.63342 78.493704s-138.975815-27.938437-189.63342-78.493704c-50.657605-50.657605-78.493704-117.996402-78.493704-189.63342s27.938437-138.975815 78.493704-189.63342c50.657605-50.657605 117.996402-78.493704 189.63342-78.493704 65.394363 0 127.206876 23.230861 176.022387 65.906056l174.999001-174.999001c4.40056-4.40056 10.131521-6.54967 15.964821-6.54967s11.564261 2.149111 15.964821 6.54967C854.117929 68.694783 854.117929 82.919848 845.31681 91.720967zM239.267639 437.21607c0 123.010993 100.087148 223.098141 223.098141 223.098141s223.098141-100.087148 223.098141-223.098141-100.087148-223.098141-223.098141-223.098141S239.267639 314.205077 239.267639 437.21607z"  horiz-adv-x="1024" />
      
      <glyph glyph-name="fanhui" unicode="&#58911;" d="M512-359.489906M498.081951-47.76654M602.774335 151.896062 359.003798 395.6666 602.774335 639.437138c8.801119 8.801119 8.801119 23.128523 0 31.827304l0 0c-8.801119 8.801119-23.128523 8.801119-31.827304 0L313.360784 413.678193c-4.912253-4.912253-7.061363-11.564261-6.447332-18.011593-0.614032-6.447332 1.535079-13.09934 6.447332-18.011593l257.586248-257.586248c8.801119-8.801119 23.128523-8.801119 31.827304 0C611.575455 128.767539 611.575455 143.094943 602.774335 151.896062z"  horiz-adv-x="1024" />
      
      <glyph glyph-name="zuixiaohua" unicode="&#58916;" d="M512-359.489906M498.081951-47.76654M772.963422 362.508895l-528.06716 0c-12.38297 0-22.514491 10.131521-22.514491 22.514491l0 0c0 12.38297 10.131521 22.514491 22.514491 22.514491l528.06716 0c12.38297 0 22.514491-10.131521 22.514491-22.514491l0 0C795.477913 372.640416 785.346392 362.508895 772.963422 362.508895z"  horiz-adv-x="1024" />
      
      <glyph glyph-name="shanchu" unicode="&#58917;" d="M512-359.489906M718.519288 207.772936 543.827304 382.362582l174.180292 174.180292c8.801119 8.801119 8.801119 23.128523 0 31.827304-8.801119 8.801119-23.128523 8.801119-31.827304 0L512 414.189886 337.819708 588.370178c-8.801119 8.801119-23.230861 8.596442-31.929642-0.102339l0.102339 0.102339c-8.801119-8.801119-8.698781-23.026184 0.102339-31.827304l174.180292-174.180292L305.58305 207.772936c-8.801119-8.801119-8.801119-23.128523 0-31.827304 8.801119-8.801119 23.128523-8.801119 31.827304 0L512 350.535279 686.691985 175.945633c8.801119-8.801119 22.923846-8.903458 31.724965-0.102339l0.102339 0.102339C727.218069 184.644413 727.218069 198.971817 718.519288 207.772936z"  horiz-adv-x="1024" />
      
    </font>
</defs>
</svg>
